<mxfile host="app.diagrams.net" modified="2021-04-26T11:32:43.918Z" agent="5.0 (Macintosh; Intel Mac OS X 10_15_6) AppleWebKit/605.1.15 (KHTML, like Gecko) Version/14.0.3 Safari/605.1.15" etag="vcWfv-PtEmpLvuu3qmlN" version="14.6.0" type="github">
  <diagram id="Hv1rUKzInwX2SUl8eFiO" name="Page-1">
    <mxGraphModel dx="414" dy="676" grid="1" gridSize="10" guides="1" tooltips="1" connect="1" arrows="1" fold="1" page="1" pageScale="1" pageWidth="850" pageHeight="1100" math="0" shadow="0">
      <root>
        <mxCell id="0" />
        <mxCell id="1" parent="0" />
        <mxCell id="86hugcjcFkd0N6lK-ru--10" value="" style="edgeStyle=orthogonalEdgeStyle;rounded=0;orthogonalLoop=1;jettySize=auto;html=1;" edge="1" parent="1" source="86hugcjcFkd0N6lK-ru--1" target="86hugcjcFkd0N6lK-ru--9">
          <mxGeometry relative="1" as="geometry" />
        </mxCell>
        <mxCell id="86hugcjcFkd0N6lK-ru--1" value="&lt;br&gt;Gyms&lt;br&gt;_________________________&lt;br&gt;Name,&lt;br&gt;Adress,&lt;br&gt;Slogan,&lt;br&gt;Created At&lt;br&gt;Update At&lt;br&gt;ID&lt;br&gt;&lt;br&gt;&lt;br&gt;&lt;br&gt;&lt;br&gt;" style="whiteSpace=wrap;html=1;aspect=fixed;" vertex="1" parent="1">
          <mxGeometry x="110" y="260" width="170" height="170" as="geometry" />
        </mxCell>
        <mxCell id="86hugcjcFkd0N6lK-ru--12" value="" style="edgeStyle=orthogonalEdgeStyle;rounded=0;orthogonalLoop=1;jettySize=auto;html=1;" edge="1" parent="1" source="86hugcjcFkd0N6lK-ru--9" target="86hugcjcFkd0N6lK-ru--11">
          <mxGeometry relative="1" as="geometry" />
        </mxCell>
        <mxCell id="86hugcjcFkd0N6lK-ru--9" value="&lt;br&gt;&lt;br&gt;&lt;br&gt;&lt;br&gt;&lt;br&gt;Trainers&amp;nbsp;&lt;br&gt;____________________________&lt;br&gt;Name,&lt;br&gt;Personality,&lt;br&gt;Speciality,&lt;br&gt;phone_number&lt;br&gt;ID,&lt;br&gt;Gym_Id&lt;br&gt;&lt;br&gt;&lt;br&gt;&lt;br&gt;&lt;br&gt;" style="whiteSpace=wrap;html=1;" vertex="1" parent="1">
          <mxGeometry x="100" y="565" width="190" height="145" as="geometry" />
        </mxCell>
        <mxCell id="86hugcjcFkd0N6lK-ru--11" value="&lt;br&gt;&lt;br&gt;&lt;br&gt;Clients&amp;nbsp;&lt;br&gt;__________________________&lt;br&gt;Name,&lt;br&gt;Goal,&lt;br&gt;Trainer_Id&lt;br&gt;created_at&lt;br&gt;updated_at&lt;br&gt;&lt;br&gt;&lt;br&gt;&lt;br&gt;&lt;br&gt;&lt;br&gt;" style="whiteSpace=wrap;html=1;" vertex="1" parent="1">
          <mxGeometry x="410" y="560" width="180" height="157.5" as="geometry" />
        </mxCell>
        <mxCell id="86hugcjcFkd0N6lK-ru--13" value="Has Many" style="text;html=1;align=center;verticalAlign=middle;resizable=0;points=[];autosize=1;strokeColor=none;" vertex="1" parent="1">
          <mxGeometry x="190" y="490" width="70" height="20" as="geometry" />
        </mxCell>
        <mxCell id="86hugcjcFkd0N6lK-ru--14" value="Has Many" style="text;html=1;align=center;verticalAlign=middle;resizable=0;points=[];autosize=1;strokeColor=none;" vertex="1" parent="1">
          <mxGeometry x="310" y="620" width="70" height="20" as="geometry" />
        </mxCell>
        <mxCell id="86hugcjcFkd0N6lK-ru--16" value="Gyms Has Many Trainers, Which has Many Clients" style="text;html=1;align=center;verticalAlign=middle;resizable=0;points=[];autosize=1;strokeColor=none;" vertex="1" parent="1">
          <mxGeometry x="330" y="380" width="290" height="20" as="geometry" />
        </mxCell>
      </root>
    </mxGraphModel>
  </diagram>
</mxfile>
